<?xml version="1.0" encoding="UTF-8" standalone="no"?>
<!DOCTYPE svg PUBLIC "-//W3C//DTD SVG 1.1//EN" "http://www.w3.org/Graphics/SVG/1.1/DTD/svg11.dtd">
<svg width="100%" height="100%" viewBox="0 0 900 900" version="1.1" xmlns="http://www.w3.org/2000/svg" xmlns:xlink="http://www.w3.org/1999/xlink" xml:space="preserve" xmlns:serif="http://www.serif.com/" style="fill-rule:evenodd;clip-rule:evenodd;stroke-linejoin:round;stroke-miterlimit:2;">
    <g transform="matrix(0.903118,0,0,0.903118,43.5969,43.5969)">
        <path d="M900,148.779C900,66.666 833.334,0 751.221,0L148.779,0C66.666,0 0,66.666 0,148.779L0,751.221C0,833.334 66.666,900 148.779,900L751.221,900C833.334,900 900,833.334 900,751.221L900,148.779Z" style="fill:rgb(46,77,74);"/>
        <g transform="matrix(1,0,0,1,2.55795e-13,-140.869)">
            <g transform="matrix(1.25167,0,0,1.25167,-113.252,148.475)">
                <path d="M129.878,240.898C203.033,143.876 319.244,81.109 450,81.109C580.756,81.109 696.967,143.876 770.122,240.898C696.967,337.92 580.756,400.687 450,400.687C319.244,400.687 203.033,337.92 129.878,240.898Z" style="fill:white;"/>
            </g>
            <g transform="matrix(1.35498,0,0,1.35498,-257.999,21.7239)">
                <path d="M522.518,210.687C580.684,210.687 627.907,257.91 627.907,316.076C627.907,374.243 580.684,421.466 522.518,421.466C464.351,421.466 417.128,374.243 417.128,316.076C417.128,257.91 464.351,210.687 522.518,210.687ZM522.518,290.061C536.876,290.061 548.533,301.718 548.533,316.076C548.533,330.435 536.876,342.092 522.518,342.092C508.159,342.092 496.503,330.435 496.503,316.076C496.503,301.718 508.159,290.061 522.518,290.061Z" style="fill:rgb(46,77,74);"/>
            </g>
            <g transform="matrix(2.03885,0,0,2.03885,-369.15,-128.58)">
                <g>
                    <g transform="matrix(364.947,0,0,364.947,275.863,520.057)">
                        <path d="M0.258,-0.668L0.432,-0.668L0.685,-0L0.513,-0L0.473,-0.119L0.217,-0.119L0.177,-0L0.005,-0L0.258,-0.668ZM0.26,-0.247L0.43,-0.247L0.344,-0.501L0.26,-0.247Z" style="fill:white;fill-rule:nonzero;"/>
                    </g>
                    <path d="M370.019,255.907L433.52,255.907C441.985,255.907 449.567,261.144 452.565,269.06L544.897,512.844C547.267,519.102 546.412,526.124 542.61,531.63C538.807,537.136 532.543,540.423 525.851,540.423L463.081,540.423C454.333,540.423 446.563,534.838 443.776,526.546L433.843,496.994L369.696,496.994L359.763,526.546C356.976,534.838 349.206,540.423 340.459,540.423L277.688,540.423C270.996,540.423 264.732,537.136 260.93,531.63C257.127,526.124 256.272,519.102 258.642,512.844L350.974,269.06C353.972,261.144 361.554,255.907 370.019,255.907ZM370.019,276.273L277.688,520.057L340.459,520.057L355.056,476.629L448.483,476.629L463.081,520.057L525.851,520.057L433.52,276.273L370.019,276.273ZM370.749,429.916L401.405,337.219L432.79,429.916L370.749,429.916ZM398.935,409.55C398.935,409.55 404.393,409.55 404.393,409.55L401.632,401.394L398.935,409.55Z" style="fill:rgb(46,77,74);"/>
                </g>
            </g>
        </g>
    </g>
</svg>
