<?xml version="1.0" encoding="UTF-8" standalone="no"?>
<!DOCTYPE svg PUBLIC "-//W3C//DTD SVG 1.1//EN" "http://www.w3.org/Graphics/SVG/1.1/DTD/svg11.dtd">
<svg width="100%" height="100%" viewBox="0 0 900 900" version="1.1" xmlns="http://www.w3.org/2000/svg" xmlns:xlink="http://www.w3.org/1999/xlink" xml:space="preserve" xmlns:serif="http://www.serif.com/" style="fill-rule:evenodd;clip-rule:evenodd;stroke-linejoin:round;stroke-miterlimit:2;">
    <path d="M900,148.779C900,66.666 833.334,0 751.221,0L148.779,0C66.666,0 0,66.666 0,148.779L0,751.221C0,833.334 66.666,900 148.779,900L751.221,900C833.334,900 900,833.334 900,751.221L900,148.779Z" style="fill:rgb(46,77,74);"/>
    <g transform="matrix(0.582143,0,0,0.582143,20.676,251.972)">
        <g transform="matrix(248.132,0,0,248.132,47.3316,403.444)">
            <path d="M0.008,-0L0.282,-0.7L0.416,-0.7L0.689,-0L0.535,-0L0.394,-0.377C0.39,-0.388 0.385,-0.402 0.379,-0.418C0.374,-0.435 0.368,-0.453 0.362,-0.471C0.356,-0.49 0.35,-0.507 0.345,-0.524C0.34,-0.541 0.336,-0.556 0.333,-0.567L0.36,-0.568C0.356,-0.553 0.352,-0.537 0.347,-0.52C0.342,-0.504 0.337,-0.487 0.331,-0.47C0.325,-0.454 0.32,-0.437 0.314,-0.421C0.308,-0.405 0.302,-0.389 0.297,-0.374L0.156,-0L0.008,-0ZM0.135,-0.147L0.184,-0.268L0.505,-0.268L0.555,-0.147L0.135,-0.147Z" style="fill:white;fill-rule:nonzero;"/>
        </g>
        <g transform="matrix(248.132,0,0,248.132,221.024,403.444)">
            <rect x="0.072" y="-0.74" width="0.142" height="0.74" style="fill:white;fill-rule:nonzero;"/>
        </g>
        <g transform="matrix(248.132,0,0,248.132,282.561,403.444)">
            <path d="M0.122,-0L0.122,-0.663L0.264,-0.663L0.264,-0L0.122,-0ZM0.023,-0.402L0.023,-0.529L0.373,-0.529L0.373,-0.402L0.023,-0.402Z" style="fill:white;fill-rule:nonzero;"/>
        </g>
        <g transform="matrix(248.132,0,0,248.132,377.843,403.444)">
            <rect x="0.052" y="-0.353" width="0.327" height="0.132" style="fill:white;fill-rule:nonzero;"/>
        </g>
        <g transform="matrix(248.132,0,0,248.132,475.607,403.444)">
            <path d="M0.237,-0L0.237,-0.565L0.033,-0.565L0.033,-0.7L0.597,-0.7L0.597,-0.565L0.387,-0.565L0.387,-0L0.237,-0Z" style="fill:white;fill-rule:nonzero;"/>
        </g>
        <g transform="matrix(248.132,0,0,248.132,593.718,403.444)">
            <path d="M0.322,0.01C0.265,0.01 0.215,-0.002 0.172,-0.025C0.129,-0.048 0.096,-0.08 0.072,-0.121C0.048,-0.162 0.036,-0.209 0.036,-0.261C0.036,-0.302 0.043,-0.339 0.056,-0.374C0.069,-0.407 0.088,-0.437 0.112,-0.462C0.136,-0.487 0.164,-0.506 0.197,-0.52C0.23,-0.534 0.266,-0.541 0.305,-0.541C0.341,-0.541 0.375,-0.534 0.405,-0.521C0.436,-0.507 0.462,-0.489 0.484,-0.465C0.507,-0.442 0.524,-0.414 0.536,-0.382C0.548,-0.35 0.553,-0.315 0.552,-0.277L0.551,-0.233L0.126,-0.233L0.103,-0.32L0.434,-0.32L0.418,-0.302L0.418,-0.324C0.416,-0.342 0.411,-0.359 0.401,-0.373C0.39,-0.387 0.377,-0.399 0.361,-0.407C0.345,-0.415 0.327,-0.419 0.307,-0.419C0.277,-0.419 0.252,-0.413 0.232,-0.402C0.212,-0.39 0.197,-0.374 0.186,-0.352C0.176,-0.33 0.17,-0.303 0.17,-0.272C0.17,-0.24 0.177,-0.212 0.19,-0.189C0.204,-0.165 0.223,-0.147 0.248,-0.134C0.273,-0.122 0.303,-0.115 0.337,-0.115C0.36,-0.115 0.382,-0.119 0.401,-0.126C0.42,-0.133 0.441,-0.146 0.463,-0.164L0.531,-0.069C0.512,-0.051 0.49,-0.037 0.467,-0.026C0.444,-0.014 0.42,-0.005 0.395,0.001C0.371,0.007 0.346,0.01 0.322,0.01Z" style="fill:white;fill-rule:nonzero;"/>
        </g>
        <g transform="matrix(248.132,0,0,248.132,738.379,403.444)">
            <path d="M0.405,-0L0.274,-0.187L0.234,-0.243L0.02,-0.529L0.192,-0.529L0.32,-0.348L0.364,-0.289L0.575,-0L0.405,-0ZM0.018,-0L0.229,-0.289L0.307,-0.196L0.185,-0L0.018,-0ZM0.358,-0.238L0.282,-0.331L0.395,-0.529L0.562,-0.529L0.358,-0.238Z" style="fill:white;fill-rule:nonzero;"/>
        </g>
        <g transform="matrix(248.132,0,0,248.132,877.829,403.444)">
            <path d="M0.122,-0L0.122,-0.663L0.264,-0.663L0.264,-0L0.122,-0ZM0.023,-0.402L0.023,-0.529L0.373,-0.529L0.373,-0.402L0.023,-0.402Z" style="fill:white;fill-rule:nonzero;"/>
        </g>
        <g transform="matrix(248.132,0,0,248.132,973.111,403.444)">
            <path d="M0.124,0.011C0.098,0.011 0.078,0.004 0.064,-0.011C0.05,-0.026 0.043,-0.047 0.043,-0.074C0.043,-0.099 0.05,-0.119 0.065,-0.135C0.08,-0.151 0.1,-0.158 0.124,-0.158C0.149,-0.158 0.169,-0.151 0.183,-0.136C0.197,-0.122 0.204,-0.101 0.204,-0.074C0.204,-0.049 0.197,-0.029 0.182,-0.013C0.167,0.003 0.148,0.011 0.124,0.011Z" style="fill:white;fill-rule:nonzero;"/>
        </g>
        <g transform="matrix(248.132,0,0,248.132,1029.69,403.444)">
            <path d="M0.317,0.01C0.263,0.01 0.215,-0.002 0.173,-0.026C0.13,-0.049 0.097,-0.082 0.073,-0.123C0.048,-0.165 0.036,-0.212 0.036,-0.265C0.036,-0.318 0.048,-0.365 0.073,-0.407C0.097,-0.448 0.13,-0.48 0.173,-0.504C0.215,-0.528 0.263,-0.54 0.317,-0.54C0.37,-0.54 0.418,-0.528 0.46,-0.504C0.503,-0.48 0.536,-0.448 0.56,-0.407C0.584,-0.365 0.596,-0.318 0.596,-0.265C0.596,-0.212 0.584,-0.165 0.56,-0.123C0.536,-0.082 0.503,-0.049 0.46,-0.026C0.418,-0.002 0.37,0.01 0.317,0.01ZM0.317,-0.114C0.343,-0.114 0.366,-0.12 0.387,-0.133C0.408,-0.147 0.424,-0.165 0.436,-0.187C0.447,-0.21 0.453,-0.236 0.453,-0.265C0.453,-0.294 0.447,-0.321 0.436,-0.343C0.424,-0.366 0.408,-0.384 0.387,-0.397C0.366,-0.41 0.343,-0.417 0.317,-0.417C0.291,-0.417 0.267,-0.41 0.246,-0.397C0.225,-0.384 0.209,-0.366 0.197,-0.343C0.185,-0.32 0.18,-0.294 0.18,-0.265C0.18,-0.236 0.185,-0.21 0.197,-0.187C0.209,-0.165 0.225,-0.147 0.246,-0.133C0.267,-0.12 0.291,-0.114 0.317,-0.114Z" style="fill:white;fill-rule:nonzero;"/>
        </g>
        <g transform="matrix(248.132,0,0,248.132,1182.29,403.444)">
            <path d="M0.071,-0L0.071,-0.529L0.208,-0.529L0.213,-0.359L0.189,-0.394C0.197,-0.422 0.21,-0.446 0.228,-0.468C0.246,-0.491 0.267,-0.508 0.291,-0.521C0.316,-0.534 0.341,-0.54 0.368,-0.54C0.379,-0.54 0.391,-0.539 0.401,-0.537C0.411,-0.535 0.42,-0.533 0.428,-0.53L0.39,-0.374C0.382,-0.378 0.373,-0.382 0.361,-0.385C0.35,-0.388 0.338,-0.389 0.326,-0.389C0.31,-0.389 0.295,-0.386 0.282,-0.38C0.268,-0.375 0.256,-0.367 0.246,-0.356C0.236,-0.346 0.228,-0.334 0.222,-0.32C0.217,-0.306 0.214,-0.291 0.214,-0.274L0.214,-0L0.071,-0Z" style="fill:white;fill-rule:nonzero;"/>
        </g>
        <g transform="matrix(248.132,0,0,248.132,1278.56,403.444)">
            <path d="M0.312,0.23C0.27,0.23 0.229,0.224 0.188,0.212C0.147,0.199 0.114,0.183 0.089,0.164L0.139,0.062C0.152,0.071 0.168,0.08 0.185,0.087C0.202,0.095 0.221,0.1 0.24,0.104C0.259,0.108 0.278,0.11 0.298,0.11C0.332,0.11 0.361,0.105 0.383,0.094C0.406,0.084 0.423,0.068 0.434,0.046C0.445,0.025 0.451,-0.002 0.451,-0.034L0.451,-0.126L0.475,-0.121C0.471,-0.099 0.46,-0.079 0.442,-0.061C0.424,-0.043 0.401,-0.028 0.374,-0.017C0.347,-0.005 0.319,0 0.29,0C0.241,0 0.197,-0.011 0.159,-0.034C0.121,-0.057 0.091,-0.088 0.069,-0.128C0.047,-0.168 0.036,-0.214 0.036,-0.267C0.036,-0.32 0.047,-0.367 0.069,-0.408C0.09,-0.449 0.12,-0.481 0.158,-0.505C0.195,-0.528 0.238,-0.54 0.286,-0.54C0.306,-0.54 0.325,-0.538 0.343,-0.533C0.362,-0.528 0.379,-0.522 0.395,-0.514C0.41,-0.506 0.424,-0.496 0.437,-0.486C0.449,-0.475 0.459,-0.464 0.467,-0.452C0.475,-0.44 0.48,-0.428 0.482,-0.416L0.453,-0.408L0.457,-0.529L0.593,-0.529L0.593,-0.04C0.593,0.003 0.587,0.041 0.574,0.075C0.561,0.108 0.543,0.136 0.518,0.16C0.494,0.183 0.464,0.2 0.43,0.212C0.395,0.224 0.355,0.23 0.312,0.23ZM0.316,-0.114C0.344,-0.114 0.369,-0.121 0.39,-0.133C0.411,-0.146 0.427,-0.164 0.438,-0.186C0.45,-0.209 0.455,-0.235 0.455,-0.266C0.455,-0.296 0.45,-0.323 0.438,-0.346C0.426,-0.369 0.41,-0.386 0.389,-0.399C0.368,-0.412 0.344,-0.418 0.316,-0.418C0.288,-0.418 0.264,-0.412 0.244,-0.399C0.223,-0.386 0.207,-0.368 0.195,-0.345C0.183,-0.322 0.178,-0.296 0.178,-0.266C0.178,-0.236 0.183,-0.21 0.195,-0.187C0.207,-0.164 0.223,-0.146 0.244,-0.133C0.264,-0.121 0.288,-0.114 0.316,-0.114Z" style="fill:white;fill-rule:nonzero;"/>
        </g>
    </g>
</svg>
