<?xml version="1.0" encoding="UTF-8" standalone="no"?>
<!DOCTYPE svg PUBLIC "-//W3C//DTD SVG 1.1//EN" "http://www.w3.org/Graphics/SVG/1.1/DTD/svg11.dtd">
<svg width="100%" height="100%" viewBox="0 0 564 564" version="1.1" xmlns="http://www.w3.org/2000/svg" xmlns:xlink="http://www.w3.org/1999/xlink" xml:space="preserve" xmlns:serif="http://www.serif.com/" style="fill-rule:evenodd;clip-rule:evenodd;stroke-linejoin:round;stroke-miterlimit:2;">
    <g transform="matrix(1,0,0,1,-3606.75,-1164.55)">
        <g>
            <g>
                <circle cx="3888.74" cy="1256.03" r="66.068"/>
                <path d="M3888.74,1173.29C3934.4,1173.29 3971.47,1210.36 3971.47,1256.03C3971.47,1301.69 3934.4,1338.76 3888.74,1338.76C3843.07,1338.76 3806,1301.69 3806,1256.03C3806,1210.36 3843.07,1173.29 3888.74,1173.29ZM3888.74,1189.96C3852.27,1189.96 3822.67,1219.56 3822.67,1256.03C3822.67,1292.49 3852.27,1322.09 3888.74,1322.09C3925.2,1322.09 3954.8,1292.49 3954.8,1256.03C3954.8,1219.56 3925.2,1189.96 3888.74,1189.96Z" style="fill:white;"/>
                <g transform="matrix(1,0,0,1,0,190.512)">
                    <circle cx="3888.74" cy="1256.03" r="66.068"/>
                    <path d="M3888.74,1173.29C3934.4,1173.29 3971.47,1210.36 3971.47,1256.03C3971.47,1301.69 3934.4,1338.76 3888.74,1338.76C3843.07,1338.76 3806,1301.69 3806,1256.03C3806,1210.36 3843.07,1173.29 3888.74,1173.29ZM3888.74,1189.96C3852.27,1189.96 3822.67,1219.56 3822.67,1256.03C3822.67,1292.49 3852.27,1322.09 3888.74,1322.09C3925.2,1322.09 3954.8,1292.49 3954.8,1256.03C3954.8,1219.56 3925.2,1189.96 3888.74,1189.96Z" style="fill:white;"/>
                </g>
                <g transform="matrix(1,0,0,1,0,381.023)">
                    <circle cx="3888.74" cy="1256.03" r="66.068"/>
                    <path d="M3888.74,1173.29C3934.4,1173.29 3971.47,1210.36 3971.47,1256.03C3971.47,1301.69 3934.4,1338.76 3888.74,1338.76C3843.07,1338.76 3806,1301.69 3806,1256.03C3806,1210.36 3843.07,1173.29 3888.74,1173.29ZM3888.74,1189.96C3852.27,1189.96 3822.67,1219.56 3822.67,1256.03C3822.67,1292.49 3852.27,1322.09 3888.74,1322.09C3925.2,1322.09 3954.8,1292.49 3954.8,1256.03C3954.8,1219.56 3925.2,1189.96 3888.74,1189.96Z" style="fill:white;"/>
                </g>
            </g>
            <g transform="matrix(1,0,0,1,32.6812,-25.4106)">
                <rect x="3574.07" y="1189.96" width="563.98" height="563.98" style="fill:none;"/>
            </g>
        </g>
    </g>
</svg>
