<?xml version="1.0" encoding="UTF-8" standalone="no"?>
<!DOCTYPE svg PUBLIC "-//W3C//DTD SVG 1.1//EN" "http://www.w3.org/Graphics/SVG/1.1/DTD/svg11.dtd">
<svg width="100%" height="100%" viewBox="0 0 191 114" version="1.1" xmlns="http://www.w3.org/2000/svg" xmlns:xlink="http://www.w3.org/1999/xlink" xml:space="preserve" xmlns:serif="http://www.serif.com/" style="fill-rule:evenodd;clip-rule:evenodd;stroke-linejoin:round;stroke-miterlimit:2;">
    <g transform="matrix(1,0,0,1,-1360.42,-2659.4)">
        <g transform="matrix(0.248947,2.90952e-34,0,-0.248947,1280.03,3258.4)">
            <path d="M682.182,1961.21C687.89,1954.8 696.063,1951.13 704.644,1951.13C713.226,1951.13 721.399,1954.8 727.106,1961.21C793.523,2035.78 989.872,2256.25 1078.75,2356.04C1086.63,2364.89 1088.59,2377.55 1083.74,2388.36C1078.89,2399.17 1068.14,2406.13 1056.29,2406.13L352.998,2406.13C341.148,2406.13 330.402,2399.17 325.553,2388.36C320.704,2377.55 322.655,2364.89 330.536,2356.04C419.417,2256.25 615.766,2035.78 682.182,1961.21Z" style="fill:rgb(46,46,46);"/>
        </g>
    </g>
</svg>
