<?xml version="1.0" encoding="UTF-8" standalone="no"?>
<!DOCTYPE svg PUBLIC "-//W3C//DTD SVG 1.1//EN" "http://www.w3.org/Graphics/SVG/1.1/DTD/svg11.dtd">
<svg width="100%" height="100%" viewBox="0 0 631 598" version="1.1" xmlns="http://www.w3.org/2000/svg" xmlns:xlink="http://www.w3.org/1999/xlink" xml:space="preserve" xmlns:serif="http://www.serif.com/" style="fill-rule:evenodd;clip-rule:evenodd;stroke-linejoin:round;stroke-miterlimit:2;">
    <g transform="matrix(1,0,0,1,-2365.7,-1027.26)">
        <g transform="matrix(0.756657,0,0,1,1780.19,0)">
            <g transform="matrix(1.3216,0,0,1,-2379.03,117.642)">
                <path d="M2575.13,1331.8L2461.08,1489.9C2447.63,1508.56 2421.56,1512.78 2402.91,1499.32C2384.26,1485.87 2380.04,1459.81 2393.49,1441.15L2509.86,1279.83C2482.28,1246.09 2465.73,1202.98 2465.73,1156.04C2465.73,1047.95 2553.49,960.201 2661.57,960.201C2769.66,960.201 2857.42,1047.95 2857.42,1156.04C2857.42,1264.13 2769.66,1351.89 2661.57,1351.89C2630.55,1351.89 2601.21,1344.66 2575.13,1331.8ZM2661.57,989.367C2569.58,989.367 2494.9,1064.05 2494.9,1156.04C2494.9,1248.03 2569.58,1322.72 2661.57,1322.72C2753.57,1322.72 2828.25,1248.03 2828.25,1156.04C2828.25,1064.05 2753.57,989.367 2661.57,989.367Z"/>
            </g>
            <g transform="matrix(1.3216,0,0,1,-2352.7,0)">
                <path d="M2540.36,1082.13C2552.15,1049.46 2578.53,1027.26 2607.74,1027.26L2922,1027.26C2961.55,1027.26 2995.91,1067.97 2995.91,1120.25L2995.91,1523.94C2995.91,1576.22 2961.55,1616.93 2922,1616.93L2607.74,1616.93C2568.18,1616.93 2533.83,1576.22 2533.83,1523.94L2533.83,1514.68L2562.22,1475.32C2562.48,1475.42 2562.74,1475.52 2563,1475.62L2563,1523.94C2563,1545.55 2570.6,1564.86 2582.86,1576.74C2589.87,1583.52 2598.4,1587.76 2607.74,1587.76L2922,1587.76C2931.34,1587.76 2939.87,1583.52 2946.88,1576.74C2959.14,1564.86 2966.74,1545.55 2966.74,1523.94L2966.74,1120.25C2966.74,1098.64 2959.14,1079.33 2946.88,1067.45C2939.87,1060.66 2931.34,1056.42 2922,1056.42L2607.74,1056.42C2600.09,1056.42 2592.99,1059.27 2586.82,1064.02C2570.5,1068.28 2554.94,1074.4 2540.36,1082.13ZM2567.54,1092.37C2564.61,1100.84 2563,1110.3 2563,1120.25L2563,1126.73C2552.56,1132.33 2542.79,1139.01 2533.83,1146.62L2533.83,1120.25C2533.83,1116.75 2533.99,1113.3 2534.28,1109.91C2544.72,1103.05 2555.85,1097.16 2567.54,1092.37ZM2533.83,1479.07L2533.83,1400.75C2542.79,1408.36 2552.56,1415.05 2563,1420.65L2563,1453.07C2560.37,1451.91 2557.77,1450.7 2555.2,1449.44L2533.83,1479.07ZM2813.27,1141.46L2925.18,1141.46C2933.23,1141.46 2939.76,1148 2939.76,1156.04C2939.76,1164.09 2933.23,1170.63 2925.18,1170.63L2832.26,1170.63C2826.7,1160.38 2820.34,1150.63 2813.27,1141.46ZM2857.12,1250.67L2925.18,1250.67C2933.23,1250.67 2939.76,1257.2 2939.76,1265.25C2939.76,1273.3 2933.23,1279.83 2925.18,1279.83L2858.24,1279.83C2858.3,1277.79 2858.33,1275.74 2858.33,1273.69C2858.33,1265.91 2857.92,1258.23 2857.12,1250.67ZM2840.48,1359.87L2925.18,1359.87C2933.23,1359.87 2939.76,1366.41 2939.76,1374.46C2939.76,1382.51 2933.23,1389.04 2925.18,1389.04C2925.18,1389.04 2870.77,1389.04 2825.06,1389.04C2830.91,1379.77 2836.07,1370.02 2840.48,1359.87ZM2735.35,1469.08L2926.66,1469.08C2934.71,1469.08 2941.24,1475.62 2941.24,1483.66C2941.24,1491.71 2934.71,1498.25 2926.66,1498.25L2603.08,1498.25C2595.07,1498.25 2588.56,1491.78 2588.5,1483.78C2605.51,1488.08 2623.31,1490.36 2641.65,1490.36C2675.2,1490.36 2706.99,1482.72 2735.35,1469.08ZM2738.89,1138.33C2751.82,1139.19 2764.72,1140.26 2777.59,1141.46L2786.07,1141.46C2794.31,1150.45 2801.72,1160.21 2808.18,1170.63L2776.91,1170.63C2776.46,1170.63 2776,1170.61 2775.55,1170.56C2774.48,1170.46 2773.4,1170.36 2772.33,1170.26C2762.72,1158.14 2751.46,1147.38 2738.89,1138.33ZM2563,1150.88L2563,1396.49C2552.22,1389.58 2542.42,1381.28 2533.83,1371.85L2533.83,1175.52C2542.42,1166.09 2552.22,1157.8 2563,1150.88ZM2628.3,1469.08L2655,1469.08C2650.59,1469.38 2646.14,1469.53 2641.65,1469.53C2637.17,1469.53 2632.72,1469.38 2628.3,1469.08ZM2799.89,1389.04C2781.43,1389.04 2767.44,1389.04 2764.14,1389.04C2763.32,1389.12 2762.5,1389.21 2761.68,1389.29C2770.26,1380.38 2777.87,1370.51 2784.31,1359.87L2817.53,1359.87C2812.49,1370.13 2806.58,1379.89 2799.89,1389.04ZM2837.4,1279.83L2808.22,1279.83C2808.29,1277.79 2808.33,1275.74 2808.33,1273.69C2808.33,1265.88 2807.79,1258.19 2806.75,1250.67L2836.15,1250.67C2837.04,1258.22 2837.49,1265.9 2837.49,1273.69C2837.49,1275.74 2837.46,1277.79 2837.4,1279.83ZM2741.86,1167.76C2696.56,1164.57 2650.74,1164 2603.59,1170.49C2595.61,1171.59 2588.25,1166.01 2587.15,1158.03C2586.05,1150.06 2591.64,1142.69 2599.61,1141.6C2630.5,1137.34 2660.84,1135.97 2690.83,1136.36C2710.02,1143.24 2727.35,1154.03 2741.86,1167.76ZM2726.49,1392.29C2684.15,1395.19 2641.8,1395.16 2599.46,1388.88C2591.5,1387.7 2585.99,1380.28 2587.17,1372.32C2588.35,1364.36 2595.78,1358.85 2603.74,1360.03C2655.49,1367.71 2707.25,1365.45 2759.01,1360.24C2749.91,1372.55 2738.93,1383.37 2726.49,1392.29ZM2787.37,1279.83L2601.6,1279.83C2593.55,1279.83 2587.01,1273.3 2587.01,1265.25C2587.01,1257.2 2593.55,1250.67 2601.6,1250.67L2785.68,1250.67C2786.88,1258.17 2787.49,1265.85 2787.49,1273.69C2787.49,1275.75 2787.45,1277.8 2787.37,1279.83Z"/>
            </g>
        </g>
    </g>
</svg>
