<?xml version="1.0" encoding="UTF-8" standalone="no"?>
<!DOCTYPE svg PUBLIC "-//W3C//DTD SVG 1.1//EN" "http://www.w3.org/Graphics/SVG/1.1/DTD/svg11.dtd">
<svg width="100%" height="100%" viewBox="0 0 472 547" version="1.1" xmlns="http://www.w3.org/2000/svg" xmlns:xlink="http://www.w3.org/1999/xlink" xml:space="preserve" xmlns:serif="http://www.serif.com/" style="fill-rule:evenodd;clip-rule:evenodd;stroke-linejoin:round;stroke-miterlimit:2;">
    <g transform="matrix(1,0,0,1,-2365.7,-1077.84)">
        <g transform="matrix(0.756657,0,0,1,1780.19,0)">
            <g transform="matrix(1.3216,0,0,1,-2379.03,117.642)">
                <path d="M2575.13,1331.8L2461.08,1489.9C2447.63,1508.56 2421.56,1512.78 2402.91,1499.32C2384.26,1485.87 2380.04,1459.81 2393.49,1441.15L2509.86,1279.83C2482.28,1246.09 2465.73,1202.98 2465.73,1156.04C2465.73,1047.95 2553.49,960.201 2661.57,960.201C2769.66,960.201 2857.42,1047.95 2857.42,1156.04C2857.42,1264.13 2769.66,1351.89 2661.57,1351.89C2630.55,1351.89 2601.21,1344.66 2575.13,1331.8ZM2661.57,989.367C2569.58,989.367 2494.9,1064.05 2494.9,1156.04C2494.9,1248.03 2569.58,1322.72 2661.57,1322.72C2753.57,1322.72 2828.25,1248.03 2828.25,1156.04C2828.25,1064.05 2753.57,989.367 2661.57,989.367Z"/>
            </g>
        </g>
    </g>
</svg>
