<?xml version="1.0" encoding="UTF-8" standalone="no"?>
<!DOCTYPE svg PUBLIC "-//W3C//DTD SVG 1.1//EN" "http://www.w3.org/Graphics/SVG/1.1/DTD/svg11.dtd">
<svg width="100%" height="100%" viewBox="0 0 496 628" version="1.1" xmlns="http://www.w3.org/2000/svg" xmlns:xlink="http://www.w3.org/1999/xlink" xml:space="preserve" xmlns:serif="http://www.serif.com/" style="fill-rule:evenodd;clip-rule:evenodd;stroke-linejoin:round;stroke-miterlimit:2;">
    <g transform="matrix(1,0,0,1,-158.855,-92.7405)">
        <g transform="matrix(0.72175,0,0,0.72175,117.017,113.082)">
            <g transform="matrix(2.98815,0,0,2.98815,-794.145,-783.374)">
                <path d="M422.997,448.199C423.609,448.762 424.213,449.342 424.81,449.939C435.299,460.428 440.642,473.313 440.642,488.672C440.642,503.545 435.457,516.382 425.046,527.165C414.498,538.09 401.522,543.602 386.077,543.602C371.031,543.602 358.129,538.195 347.409,527.287C336.781,516.472 331.512,503.588 331.512,488.672C331.512,473.269 336.94,460.339 347.647,449.819C348.1,449.374 348.558,448.938 349.019,448.511C342.749,445.361 338.446,438.871 338.446,431.375L338.446,426.996C338.446,426.73 338.451,426.464 338.463,426.198C339.071,411.599 341.685,399.79 345.791,390.665C350.348,380.538 357.288,371.793 366.741,364.535C374.448,358.617 384.323,352.709 396.434,346.929C396.477,346.908 396.521,346.888 396.564,346.868C404.329,343.233 410.665,340.119 415.562,337.508C411.43,336.076 406.317,335.582 400.31,335.582C392.781,335.582 386.036,336.904 380.133,339.813C376.369,341.667 373.878,344.752 372.46,348.897C370.793,353.77 367.234,357.767 362.587,359.987C357.939,362.207 352.594,362.463 347.756,360.697L297.758,342.45C292.888,340.672 288.946,336.997 286.831,332.264C284.716,327.53 284.609,322.142 286.534,317.328C295.053,296.033 310.002,279.657 331.602,268.401C351.356,258.107 374.955,252.729 402.499,252.729C420.626,252.729 437.648,255.306 453.577,260.386C470.961,265.931 485.034,274.475 495.974,285.715C508.257,298.334 514.726,314.445 514.726,334.3C514.726,356.283 507.95,373.101 495.792,385.258C485.439,395.611 472.787,404.393 457.754,411.484C457.73,411.496 457.706,411.507 457.682,411.518C448.231,415.928 440.936,419.935 435.895,423.716C434.125,425.044 433.538,427.208 433.233,429.784L432.883,433.282C432.233,439.781 428.387,445.252 422.997,448.199ZM386.077,524.437C396.052,524.437 404.446,520.909 411.258,513.853C418.071,506.798 421.477,498.404 421.477,488.672C421.477,478.697 418.071,470.303 411.258,463.491C404.446,456.678 396.052,453.272 386.077,453.272C376.345,453.272 368.012,456.678 361.078,463.491C354.144,470.303 350.677,478.697 350.677,488.672C350.677,498.404 354.144,506.798 361.078,513.853C368.012,520.909 376.345,524.437 386.077,524.437ZM357.611,431.375L413.813,431.375L414.178,427.726C415.151,419.21 418.557,412.763 424.396,408.384C430.235,404.004 438.629,399.26 449.578,394.151C462.472,388.068 473.36,380.587 482.24,371.707C491.121,362.826 495.561,350.357 495.561,334.3C495.561,319.945 491.121,308.206 482.24,299.082C473.36,289.959 461.864,283.146 447.753,278.645C433.642,274.144 418.557,271.894 402.499,271.894C378.413,271.894 357.733,276.395 340.459,285.397C323.184,294.399 311.141,307.415 304.329,324.446L354.327,342.693C357.489,333.448 363.268,326.757 371.661,322.621C380.055,318.485 389.605,316.417 400.31,316.417C411.988,316.417 421.294,318.364 428.228,322.256C435.162,326.149 438.629,331.137 438.629,337.219C438.629,343.302 435.831,347.985 430.235,351.27C424.64,354.554 416.124,358.873 404.689,364.225C393.984,369.334 385.225,374.505 378.413,379.735C371.601,384.966 366.552,391.231 363.268,398.53C359.983,405.829 358.098,415.318 357.611,426.996L357.611,431.375Z"/>
            </g>
        </g>
    </g>
</svg>
