<?xml version="1.0" encoding="UTF-8" standalone="no"?>
<!DOCTYPE svg PUBLIC "-//W3C//DTD SVG 1.1//EN" "http://www.w3.org/Graphics/SVG/1.1/DTD/svg11.dtd">
<svg width="100%" height="100%" viewBox="0 0 412 586" version="1.1" xmlns="http://www.w3.org/2000/svg" xmlns:xlink="http://www.w3.org/1999/xlink" xml:space="preserve" xmlns:serif="http://www.serif.com/" style="fill-rule:evenodd;clip-rule:evenodd;stroke-linejoin:round;stroke-miterlimit:2;">
    <g transform="matrix(1,0,0,1,-1700.77,-2328.47)">
        <path d="M1899.29,2331.52C1900.29,2330.52 1901.44,2329.77 1902.67,2329.26C1903.89,2328.75 1905.24,2328.47 1906.65,2328.47C1908.07,2328.47 1909.41,2328.75 1910.64,2329.26C1911.87,2329.77 1913.02,2330.52 1914.02,2331.52L2018.59,2436.09C2022.65,2440.16 2022.65,2446.76 2018.59,2450.82C2014.52,2454.89 2007.92,2454.89 2003.86,2450.82L1917.07,2364.04L1917.07,2730.39C1917.07,2736.14 1912.4,2740.81 1906.65,2740.81C1900.9,2740.81 1896.24,2736.14 1896.24,2730.39L1896.24,2364.04L1809.62,2450.65C1805.56,2454.71 1798.96,2454.71 1794.89,2450.65C1790.83,2446.58 1790.83,2439.98 1794.89,2435.92L1899.29,2331.52ZM1802.26,2501.72C1808.01,2501.72 1812.67,2506.39 1812.67,2512.14C1812.67,2517.89 1808.01,2522.55 1802.26,2522.55L1721.61,2522.55L1721.61,2892.64L2091.7,2892.64L2091.7,2522.55L2011.22,2522.55C2005.47,2522.55 2000.81,2517.89 2000.81,2512.14C2000.81,2506.39 2005.47,2501.72 2011.22,2501.72L2102.11,2501.72C2107.87,2501.72 2112.53,2506.39 2112.53,2512.14L2112.53,2903.06C2112.53,2908.81 2107.87,2913.48 2102.11,2913.48L1711.19,2913.48C1705.44,2913.48 1700.78,2908.81 1700.78,2903.06L1700.78,2512.14C1700.78,2506.39 1705.44,2501.72 1711.19,2501.72L1802.26,2501.72Z"/>
    </g>
</svg>
